HIERARCHY
ROOT hips
{
	OFFSET -0.003675 0.299928 -0.021708
	CHANNELS 6 Xposition Yposition Zposition Xrotation Yrotation Zrotation
	JOINT LowerBack
	{
		OFFSET 0.000919 0.177588 0.009275
		CHANNELS 3 Xrotation Yrotation Zrotation
		JOINT spine
		{
			OFFSET 0.000919 0.177588 0.009275
			CHANNELS 3 Xrotation Yrotation Zrotation
			JOINT chest
			{
				OFFSET 0.000456 0.100015 0.004638
				CHANNELS 3 Xrotation Yrotation Zrotation
				JOINT neck
				{
					OFFSET 0.000456 0.100015 0.004638
					CHANNELS 3 Xrotation Yrotation Zrotation
					JOINT head
					{
						OFFSET 0.000924 0.155147 0.009274
						CHANNELS 6 Xposition Yposition Zposition Xrotation Yrotation Zrotation
						End Site
						{
							OFFSET 0.000000 0.153400 0.000000
						}
					}
				}
				JOINT shoulder.L
				{
					OFFSET 0.019937 0.078966 0.057518
					CHANNELS 6 Xposition Yposition Zposition Yrotation Xrotation Zrotation
					JOINT upper_arm.L
					{
						OFFSET 0.177024 -0.020465 -0.095062
						CHANNELS 6 Xposition Yposition Zposition Xrotation Yrotation Zrotation
						JOINT forearm.L
						{
							OFFSET 0.247100 -0.135500 -0.061800
							CHANNELS 3 Xrotation Yrotation Zrotation
							JOINT hand.L
							{
								OFFSET 0.217000 -0.143000 0.039300
								CHANNELS 3 Xrotation Yrotation Zrotation
								JOINT palm.01.L
								{
									OFFSET 0.021770 -0.038291 0.012954
									CHANNELS 6 Xposition Yposition Zposition Yrotation Xrotation Zrotation
									JOINT f_index.01.L
									{
										OFFSET 0.053215 -0.044137 0.008236
										CHANNELS 3 Xrotation Yrotation Zrotation
										JOINT f_index.02.L
										{
											OFFSET 0.036108 -0.024723 -0.010656
											CHANNELS 3 Xrotation Yrotation Zrotation
											JOINT f_index.03.L
											{
												OFFSET 0.021342 -0.014948 -0.010846
												CHANNELS 3 Xrotation Yrotation Zrotation
												End Site
												{
													OFFSET 0.015600 -0.009860 -0.013421
												}
											}
										}
									}
									JOINT thumb.01.L
									{
										OFFSET -0.009090 -0.002348 -0.024223
										CHANNELS 6 Xposition Yposition Zposition Xrotation Yrotation Zrotation
										JOINT thumb.02.L
										{
											OFFSET 0.019713 -0.035076 -0.011120
											CHANNELS 3 Xrotation Yrotation Zrotation
											JOINT thumb.03.L
											{
												OFFSET 0.024877 -0.021748 -0.005176
												CHANNELS 3 Xrotation Yrotation Zrotation
												End Site
												{
													OFFSET 0.016125 -0.013029 -0.001569
												}
											}
										}
									}
								}
								JOINT palm.02.L
								{
									OFFSET 0.032823 -0.025104 0.012281
									CHANNELS 6 Xposition Yposition Zposition Yrotation Xrotation Zrotation
									JOINT f_middle.01.L
									{
										OFFSET 0.055723 -0.038469 0.008037
										CHANNELS 3 Xrotation Yrotation Zrotation
										JOINT f_middle.02.L
										{
											OFFSET 0.038167 -0.027473 -0.015582
											CHANNELS 3 Xrotation Yrotation Zrotation
											JOINT f_middle.03.L
											{
												OFFSET 0.021707 -0.016587 -0.017037
												CHANNELS 3 Xrotation Yrotation Zrotation
												End Site
												{
													OFFSET 0.014112 -0.010584 -0.014294
												}
											}
										}
									}
								}
								JOINT palm.03.L
								{
									OFFSET 0.039230 -0.011402 0.008390
									CHANNELS 6 Xposition Yposition Zposition Yrotation Xrotation Zrotation
									JOINT f_ring.01.L
									{
										OFFSET 0.061796 -0.031470 0.007910
										CHANNELS 3 Xrotation Yrotation Zrotation
										JOINT f_ring.02.L
										{
											OFFSET 0.033092 -0.023401 -0.019127
											CHANNELS 3 Xrotation Yrotation Zrotation
											JOINT f_ring.03.L
											{
												OFFSET 0.021392 -0.015362 -0.017824
												CHANNELS 3 Xrotation Yrotation Zrotation
												End Site
												{
													OFFSET 0.008670 -0.007297 -0.014686
												}
											}
										}
									}
								}
								JOINT palm.04.L
								{
									OFFSET 0.043417 0.002450 0.002889
									CHANNELS 6 Xposition Yposition Zposition Yrotation Xrotation Zrotation
									JOINT f_pinky.01.L
									{
										OFFSET 0.069986 -0.026156 0.003627
										CHANNELS 3 Xrotation Yrotation Zrotation
										JOINT f_pinky.02.L
										{
											OFFSET 0.018520 -0.012813 -0.016429
											CHANNELS 3 Xrotation Yrotation Zrotation
											JOINT f_pinky.03.L
											{
												OFFSET 0.013822 -0.009796 -0.014947
												CHANNELS 3 Xrotation Yrotation Zrotation
												End Site
												{
													OFFSET 0.007238 -0.006103 -0.011657
												}
											}
										}
									}
								}
							}
						}
					}
				}
				JOINT shoulder.R
				{
					OFFSET -0.016662 0.078957 0.057696
					CHANNELS 6 Xposition Yposition Zposition Yrotation Xrotation Zrotation
					JOINT upper_arm.R
					{
						OFFSET -0.176972 -0.020537 -0.095144
						CHANNELS 6 Xposition Yposition Zposition Xrotation Yrotation Zrotation
						JOINT forearm.R
						{
							OFFSET -0.247100 -0.135500 -0.061800
							CHANNELS 3 Xrotation Yrotation Zrotation
							JOINT hand.R
							{
								OFFSET -0.217000 -0.143000 0.039300
								CHANNELS 3 Xrotation Yrotation Zrotation
								JOINT palm.01.R
								{
									OFFSET -0.021773 -0.038278 0.012988
									CHANNELS 6 Xposition Yposition Zposition Yrotation Xrotation Zrotation
									JOINT f_index.01.R
									{
										OFFSET -0.053212 -0.044139 0.008249
										CHANNELS 3 Xrotation Yrotation Zrotation
										JOINT f_index.02.R
										{
											OFFSET -0.036049 -0.024835 -0.010634
											CHANNELS 3 Xrotation Yrotation Zrotation
											JOINT f_index.03.R
											{
												OFFSET -0.021371 -0.014881 -0.010866
												CHANNELS 3 Xrotation Yrotation Zrotation
												End Site
												{
													OFFSET -0.015584 -0.009883 -0.013422
												}
											}
										}
									}
									JOINT thumb.01.R
									{
										OFFSET 0.009113 -0.002381 -0.024211
										CHANNELS 6 Xposition Yposition Zposition Xrotation Yrotation Zrotation
										JOINT thumb.02.R
										{
											OFFSET -0.019694 -0.035097 -0.011088
											CHANNELS 3 Xrotation Yrotation Zrotation
											JOINT thumb.03.R
											{
												OFFSET -0.024867 -0.021762 -0.005168
												CHANNELS 3 Xrotation Yrotation Zrotation
												End Site
												{
													OFFSET -0.016120 -0.013036 -0.001565
												}
											}
										}
									}
								}
								JOINT palm.02.R
								{
									OFFSET -0.032828 -0.025095 0.012286
									CHANNELS 6 Xposition Yposition Zposition Yrotation Xrotation Zrotation
									JOINT f_middle.01.R
									{
										OFFSET -0.055721 -0.038472 0.008040
										CHANNELS 3 Xrotation Yrotation Zrotation
										JOINT f_middle.02.R
										{
											OFFSET -0.038101 -0.027593 -0.015557
											CHANNELS 3 Xrotation Yrotation Zrotation
											JOINT f_middle.03.R
											{
												OFFSET -0.021730 -0.016530 -0.017054
												CHANNELS 3 Xrotation Yrotation Zrotation
												End Site
												{
													OFFSET -0.014096 -0.010608 -0.014293
												}
											}
										}
									}
								}
								JOINT palm.03.R
								{
									OFFSET -0.039192 -0.011488 0.008390
									CHANNELS 6 Xposition Yposition Zposition Yrotation Xrotation Zrotation
									JOINT f_ring.01.R
									{
										OFFSET -0.061839 -0.031387 0.007876
										CHANNELS 3 Xrotation Yrotation Zrotation
										JOINT f_ring.02.R
										{
											OFFSET -0.033068 -0.023437 -0.019125
											CHANNELS 3 Xrotation Yrotation Zrotation
											JOINT f_ring.03.R
											{
												OFFSET -0.021371 -0.015393 -0.017822
												CHANNELS 3 Xrotation Yrotation Zrotation
												End Site
												{
													OFFSET -0.008654 -0.007321 -0.014684
												}
											}
										}
									}
								}
								JOINT palm.04.R
								{
									OFFSET -0.043421 0.002443 0.002845
									CHANNELS 6 Xposition Yposition Zposition Yrotation Xrotation Zrotation
									JOINT f_pinky.01.R
									{
										OFFSET -0.069983 -0.026169 0.003599
										CHANNELS 3 Xrotation Yrotation Zrotation
										JOINT f_pinky.02.R
										{
											OFFSET -0.018501 -0.012842 -0.016428
											CHANNELS 3 Xrotation Yrotation Zrotation
											JOINT f_pinky.03.R
											{
												OFFSET -0.013806 -0.009821 -0.014946
												CHANNELS 3 Xrotation Yrotation Zrotation
												End Site
												{
													OFFSET -0.007226 -0.006121 -0.011655
												}
											}
										}
									}
								}
							}
						}
					}
				}
			}
		}
	}
	JOINT pelvis.L
	{
		OFFSET 0.000000 0.000000 0.000000
		CHANNELS 6 Xposition Yposition Zposition Xrotation Yrotation Zrotation
		JOINT thigh.L
		{
			OFFSET 0.101675 0.001054 -0.000000
			CHANNELS 3 Xrotation Yrotation Zrotation
			JOINT shin.L
			{
				OFFSET 0.000000 -0.534800 0.041000
				CHANNELS 3 Xrotation Yrotation Zrotation
				JOINT foot.L
				{
					OFFSET 0.000000 -0.452000 -0.044800
					CHANNELS 3 Xrotation Yrotation Zrotation
					JOINT toe.L
					{
						OFFSET -0.000000 -0.068500 0.109600
						CHANNELS 3 Xrotation Yrotation Zrotation
						End Site
						{
							OFFSET -0.000000 0.000000 0.067200
						}
					}
				}
				JOINT heel.L
				{
					OFFSET 0.000000 -0.452000 -0.044800
					CHANNELS 3 Xrotation Yrotation Zrotation
					JOINT heel.02.L
					{
						OFFSET -0.038000 -0.085200 0.016200
						CHANNELS 6 Xposition Yposition Zposition Xrotation Yrotation Zrotation
						End Site
						{
							OFFSET 0.080000 -0.000000 0.000000
						}
					}
				}
			}
		}
	}
	JOINT pelvis.R
	{
		OFFSET 0.000000 0.000000 0.000000
		CHANNELS 6 Xposition Yposition Zposition Xrotation Yrotation Zrotation
		JOINT thigh.R
		{
			OFFSET -0.094325 0.001054 0.000000
			CHANNELS 3 Xrotation Yrotation Zrotation
			JOINT shin.R
			{
				OFFSET 0.000000 -0.534800 0.041000
				CHANNELS 3 Xrotation Yrotation Zrotation
				JOINT foot.R
				{
					OFFSET 0.000000 -0.452000 -0.044800
					CHANNELS 3 Xrotation Yrotation Zrotation
					JOINT toe.R
					{
						OFFSET -0.000000 -0.068500 0.109600
						CHANNELS 3 Xrotation Yrotation Zrotation
						End Site
						{
							OFFSET -0.000000 0.000000 0.067200
						}
					}
				}
				JOINT heel.R
				{
					OFFSET 0.000000 -0.452000 -0.044800
					CHANNELS 3 Xrotation Yrotation Zrotation
					JOINT heel.02.R
					{
						OFFSET 0.038000 -0.085200 0.016200
						CHANNELS 6 Xposition Yposition Zposition Xrotation Yrotation Zrotation
						End Site
						{
							OFFSET -0.080000 0.000000 -0.000000
						}
					}
				}
			}
		}
	}
}
MOTION
Frames: 4
Frame Time: 0.041667
-0.009882 0.204942 -0.001497 62.185491 12.628263 84.933464 0.000001 -0.000000 -0.000001 -0.000000 0.000002 -0.000000 -0.000001 0.000002 0.000001 -0.000000 0.000002 0.000000 0.000924 0.155148 0.009274 -14.963836 0.056006 4.531894 0.019937 0.078966 0.057518 -2.179168 5.712663 51.855459 0.177024 -0.020465 -0.095062 -76.278105 -31.064667 -35.056311 -178.056420 203.042659 -139.954865 -0.000001 -0.000001 -0.000000 0.021770 -0.038291 0.012954 -0.000000 -0.000001 -0.000004 -0.000000 -0.000001 0.000003 0.000003 -0.000002 0.000006 0.000002 0.000003 0.000000 -0.009090 -0.002348 -0.024224 -0.000003 -0.000001 0.000002 -0.000002 -0.000001 0.000001 0.000001 -0.000001 -0.000002 0.032823 -0.025104 0.012281 -0.000000 -0.000003 0.000004 -0.000001 0.000005 -0.000001 -0.000004 0.000003 0.000003 0.000000 0.000003 0.000005 0.039230 -0.011402 0.008390 0.000000 -0.000001 0.000004 -0.000000 0.000003 0.000001 -0.000004 0.000005 -0.000004 -0.000003 -0.000004 -0.000002 0.043417 0.002449 0.002889 -0.000001 -0.000000 -0.000003 0.000000 0.000001 0.000005 -0.000001 -0.000000 -0.000001 -0.000003 0.000003 -0.000005 -0.016662 0.078957 0.057696 6.067163 3.554312 -40.989762 -0.176972 -0.020537 -0.095144 -66.377288 10.075351 35.874257 -5.955401 38.910413 -29.233968 -0.000002 0.000001 0.000004 -0.021773 -0.038278 0.012988 0.000002 -0.000006 0.000000 -0.000001 0.000004 -0.000001 -0.000001 -0.000004 -0.000003 0.000005 0.000000 -0.000001 0.009113 -0.002381 -0.024211 -0.000002 -0.000001 0.000001 -0.000001 -0.000000 0.000000 0.000004 0.000000 -0.000008 -0.032828 -0.025095 0.012286 0.000004 -0.000002 -0.000001 -0.000003 0.000001 0.000001 0.000003 -0.000003 -0.000001 -0.000006 0.000003 -0.000004 -0.039192 -0.011488 0.008390 0.000002 -0.000000 -0.000000 0.000003 0.000002 0.000000 0.000000 -0.000003 -0.000000 0.000004 -0.000002 -0.000003 -0.043421 0.002443 0.002845 0.000002 -0.000003 0.000000 -0.000006 0.000004 0.000001 -0.000002 -0.000003 0.000000 -0.000002 0.000004 0.000004 0.000000 0.000000 -0.000000 -2.068827 1.733530 -19.800756 9.148548 -0.741036 -9.978384 18.838266 -0.092153 0.931731 -0.000002 -0.000003 0.000001 -0.000000 0.000004 -0.000003 -0.000002 0.000000 0.000000 -0.038000 -0.085200 0.016200 -0.000003 -0.000001 0.000005 -0.000000 0.000000 -0.000000 -1.960702 1.695875 -18.569809 -5.147244 -0.062177 -1.566303 3.932265 1.747007 -17.922063 -0.000003 -0.000002 0.000002 0.000003 -0.000002 -0.000001 0.000007 -0.000001 -0.000001 0.038000 -0.085200 0.016200 0.000002 -0.000005 -0.000003 
-0.009033 0.205196 0.000426 53.074262 13.031808 87.585783 0.000001 0.000002 -0.000001 -0.000002 -0.000002 -0.000001 0.000000 -0.000002 0.000000 -0.000000 0.000001 0.000000 0.000924 0.155148 0.009274 -10.435990 0.039884 -1.529156 0.019937 0.078966 0.057518 -3.498796 5.710637 52.212558 0.177024 -0.020465 -0.095062 -83.153708 -15.233279 -39.289666 -178.044795 221.486233 -138.778297 0.000000 0.000001 0.000005 0.021770 -0.038291 0.012954 0.000000 0.000002 0.000001 -0.000002 0.000000 -0.000000 0.000000 0.000001 0.000005 0.000002 0.000002 0.000002 -0.009090 -0.002348 -0.024224 0.000002 -0.000002 0.000001 0.000000 -0.000001 -0.000001 0.000002 0.000000 -0.000002 0.032823 -0.025104 0.012281 -0.000002 0.000001 0.000002 -0.000001 0.000001 -0.000003 -0.000002 -0.000000 -0.000000 -0.000003 -0.000000 0.000005 0.039230 -0.011402 0.008390 0.000001 0.000000 0.000003 0.000001 0.000000 -0.000000 -0.000001 0.000004 0.000005 -0.000000 0.000002 0.000001 0.043417 0.002450 0.002889 -0.000001 0.000001 -0.000002 -0.000001 -0.000003 0.000001 0.000000 0.000001 -0.000003 0.000001 -0.000003 -0.000001 -0.016662 0.078957 0.057696 0.849182 3.785723 -40.283325 -0.176972 -0.020537 -0.095144 -59.046897 10.686942 33.995515 15.638237 48.938862 -59.024705 -0.000003 0.000001 0.000002 -0.021773 -0.038278 0.012988 0.000001 0.000001 0.000002 0.000001 -0.000001 0.000000 -0.000000 -0.000002 -0.000001 -0.000000 0.000002 0.000002 0.009114 -0.002381 -0.024212 0.000001 -0.000001 -0.000001 -0.000004 -0.000001 0.000000 -0.000001 0.000000 -0.000004 -0.032828 -0.025095 0.012286 0.000004 -0.000002 0.000001 -0.000001 0.000005 -0.000001 -0.000004 0.000000 -0.000004 -0.000002 0.000003 -0.000006 -0.039192 -0.011488 0.008390 0.000002 0.000000 0.000007 -0.000003 0.000004 -0.000002 0.000002 0.000000 -0.000000 0.000000 0.000000 -0.000003 -0.043421 0.002443 0.002845 0.000003 -0.000001 0.000002 -0.000001 0.000003 0.000001 0.000002 0.000001 0.000003 -0.000005 0.000001 0.000001 -0.000000 0.000000 0.000000 -2.069706 1.723766 -19.699304 11.804829 -0.741940 -10.151763 20.316959 0.062697 -0.630518 0.000002 0.000004 0.000002 0.000003 0.000001 0.000000 0.000003 0.000003 0.000002 -0.038000 -0.085200 0.016200 0.000003 0.000004 0.000000 -0.000000 0.000000 0.000000 -1.961938 1.686445 -18.468335 -1.180913 -0.337548 -4.862705 5.008913 1.653348 -16.930758 0.000000 -0.000001 -0.000001 -0.000000 -0.000001 -0.000002 0.000005 -0.000003 -0.000004 0.038000 -0.085200 0.016200 -0.000002 -0.000001 0.000000 
-0.009041 0.206605 0.001469 48.367947 13.518687 88.783956 -0.000000 0.000001 -0.000001 -0.000002 0.000001 -0.000000 -0.000000 -0.000000 0.000001 0.000000 -0.000000 -0.000000 0.000924 0.155148 0.009274 -9.075976 0.035104 -0.949745 0.019937 0.078966 0.057518 -2.676466 5.579388 51.003488 0.177025 -0.020465 -0.095062 -83.438923 -7.331745 -40.798810 -170.937423 232.322765 -129.055495 -0.000001 0.000001 0.000003 0.021770 -0.038291 0.012954 0.000001 0.000000 0.000001 -0.000001 -0.000000 0.000001 0.000000 -0.000000 0.000008 -0.000001 0.000003 -0.000002 -0.009090 -0.002348 -0.024223 -0.000002 -0.000001 -0.000004 0.000001 -0.000001 0.000003 0.000001 0.000001 -0.000002 0.032823 -0.025104 0.012281 0.000000 0.000001 0.000009 -0.000002 0.000002 -0.000007 -0.000000 -0.000006 0.000006 0.000001 -0.000000 0.000000 0.039230 -0.011402 0.008390 0.000001 0.000000 0.000009 0.000001 0.000003 0.000001 -0.000001 0.000006 0.000001 -0.000001 -0.000004 0.000000 0.043417 0.002450 0.002889 -0.000000 0.000001 0.000002 -0.000001 -0.000002 -0.000004 0.000002 0.000002 -0.000001 -0.000003 0.000003 -0.000001 -0.016662 0.078957 0.057696 -0.067909 3.664857 -39.290868 -0.176972 -0.020537 -0.095144 -55.874489 7.825956 34.753358 41.429885 34.595154 -91.571930 0.000001 0.000001 -0.000000 -0.021773 -0.038278 0.012988 0.000000 -0.000000 -0.000002 -0.000004 0.000001 -0.000001 -0.000000 0.000003 -0.000004 -0.000001 -0.000005 -0.000000 0.009114 -0.002381 -0.024212 -0.000002 -0.000001 -0.000001 -0.000001 -0.000003 0.000002 0.000001 0.000002 -0.000003 -0.032828 -0.025095 0.012286 0.000002 -0.000003 -0.000003 0.000001 0.000002 -0.000004 -0.000000 -0.000000 -0.000004 -0.000001 0.000007 -0.000002 -0.039192 -0.011488 0.008390 -0.000002 0.000003 -0.000000 0.000004 0.000003 -0.000003 0.000002 -0.000003 -0.000002 0.000000 0.000005 0.000000 -0.043421 0.002443 0.002844 -0.000003 -0.000001 0.000000 -0.000003 0.000000 0.000001 0.000000 -0.000001 -0.000000 -0.000005 0.000003 0.000001 -0.000000 0.000000 0.000000 -2.066799 1.720170 -19.673171 11.797959 -0.775432 -10.593125 20.828344 -0.062814 0.635857 -0.000002 -0.000001 0.000004 -0.000000 0.000000 0.000002 -0.000002 -0.000002 -0.000001 -0.038000 -0.085200 0.016200 0.000003 -0.000003 -0.000003 -0.000000 0.000000 0.000000 -1.959266 1.682984 -18.442180 0.285023 -0.408476 -5.680153 4.490762 1.539779 -15.735803 -0.000002 -0.000002 -0.000003 -0.000000 -0.000004 -0.000003 0.000002 0.000001 -0.000001 0.038000 -0.085200 0.016200 0.000002 -0.000001 -0.000006 
-0.009041 0.207394 0.002357 44.113081 13.416564 89.122139 0.000001 0.000001 0.000000 0.000001 -0.000003 -0.000000 0.000000 0.000001 0.000000 0.000000 -0.000001 -0.000002 0.000924 0.155148 0.009274 -4.512964 0.019781 2.667655 0.019937 0.078966 0.057518 -3.226369 5.285428 49.484857 0.177024 -0.020465 -0.095062 -84.083167 -1.418950 -42.034702 -148.723121 229.989627 -103.266368 -0.000002 0.000000 0.000003 0.021770 -0.038291 0.012954 0.000000 -0.000002 -0.000004 -0.000003 -0.000000 0.000005 0.000001 -0.000000 0.000003 -0.000000 0.000002 0.000002 -0.009090 -0.002348 -0.024223 -0.000001 -0.000000 -0.000003 0.000002 -0.000000 0.000001 0.000001 -0.000001 0.000001 0.032823 -0.025104 0.012281 0.000001 -0.000001 0.000005 0.000000 0.000001 -0.000008 -0.000002 -0.000001 0.000001 0.000001 -0.000001 -0.000001 0.039230 -0.011402 0.008390 0.000001 0.000000 0.000003 0.000001 0.000002 -0.000000 0.000001 0.000004 0.000003 -0.000005 -0.000002 0.000003 0.043418 0.002450 0.002889 0.000001 -0.000000 -0.000002 0.000001 -0.000001 0.000001 0.000003 -0.000003 0.000001 -0.000001 0.000000 -0.000002 -0.016662 0.078957 0.057696 -1.139892 3.570003 -38.517937 -0.176972 -0.020537 -0.095144 -52.761517 8.230664 33.577606 43.979448 13.844186 -103.345591 -0.000001 -0.000002 0.000002 -0.021773 -0.038278 0.012988 0.000002 -0.000000 -0.000003 -0.000002 0.000001 0.000001 0.000000 -0.000000 0.000001 -0.000002 0.000002 0.000003 0.009113 -0.002381 -0.024211 0.000002 -0.000002 0.000000 -0.000001 -0.000004 0.000000 0.000001 -0.000002 0.000001 -0.032828 -0.025095 0.012286 0.000003 -0.000001 -0.000005 -0.000001 0.000007 0.000004 -0.000001 -0.000001 -0.000001 -0.000001 0.000000 -0.000003 -0.039192 -0.011488 0.008390 0.000003 0.000000 -0.000000 0.000002 0.000000 -0.000002 0.000003 -0.000003 -0.000002 0.000001 -0.000001 -0.000000 -0.043421 0.002443 0.002845 0.000002 0.000000 -0.000001 -0.000003 0.000002 -0.000001 -0.000002 -0.000006 0.000002 -0.000000 0.000003 0.000001 0.000000 0.000000 -0.000000 -2.073844 1.660689 -19.046899 12.200244 -0.803097 -10.985300 21.618116 -0.236234 2.386162 0.000005 0.000003 0.000001 -0.000000 0.000001 -0.000001 0.000000 0.000002 -0.000001 -0.038000 -0.085200 0.016200 0.000001 0.000004 -0.000003 0.000000 0.000000 0.000000 -1.968378 1.625507 -17.815748 1.562316 -0.459960 -6.259644 6.002988 1.575399 -16.109821 0.000000 0.000003 -0.000002 -0.000002 -0.000000 -0.000005 0.000009 0.000001 0.000003 0.038000 -0.085200 0.016200 0.000000 0.000003 0.000001 
